<?xml version="1.0" encoding="UTF-8" standalone="no"?>
<!-- Created with Inkscape (http://www.inkscape.org/) -->

<svg
   version="1.1"
   id="svg9"
   xml:space="preserve"
   width="793.70135"
   height="1122.52"
   viewBox="0 0 793.70135 1122.52"
   sodipodi:docname="boisko_linie_20.svg"
   inkscape:version="1.1 (c68e22c387, 2021-05-23)"
   inkscape:export-filename="C:\Users\maria\Documents\RulebookPL\boisko_linie_20.png"
   inkscape:export-xdpi="250"
   inkscape:export-ydpi="250"
   xmlns:inkscape="http://www.inkscape.org/namespaces/inkscape"
   xmlns:sodipodi="http://sodipodi.sourceforge.net/DTD/sodipodi-0.dtd"
   xmlns="http://www.w3.org/2000/svg"
   xmlns:svg="http://www.w3.org/2000/svg"><defs
     id="defs13"><clipPath
       clipPathUnits="userSpaceOnUse"
       id="clipPath23"><path
         d="M 0,0 H 595.276 V 841.89 H 0 Z"
         id="path21" /></clipPath><clipPath
       clipPathUnits="userSpaceOnUse"
       id="clipPath31"><path
         d="M 17.7038,851.546 H 362.743 V 646.507 H 17.7038 Z"
         id="path29" /></clipPath><clipPath
       clipPathUnits="userSpaceOnUse"
       id="clipPath55"><path
         d="M 0,0 H 595.276 V 841.89 H 0 Z"
         id="path53" /></clipPath><clipPath
       clipPathUnits="userSpaceOnUse"
       id="clipPath225"><path
         d="m 17.008,41.288 h 561.26 V 817.6 H 17.008 Z"
         id="path223" /></clipPath><clipPath
       clipPathUnits="userSpaceOnUse"
       id="clipPath345"><path
         d="m 17.008,41.288 h 561.26 V 817.6 H 17.008 Z"
         id="path343" /></clipPath><clipPath
       clipPathUnits="userSpaceOnUse"
       id="clipPath359"><path
         d="m 17.008,41.288 h 561.26 V 817.6 H 17.008 Z"
         id="path357" /></clipPath><clipPath
       clipPathUnits="userSpaceOnUse"
       id="clipPath373"><path
         d="m 17.008,41.288 h 561.26 V 817.6 H 17.008 Z"
         id="path371" /></clipPath><clipPath
       clipPathUnits="userSpaceOnUse"
       id="clipPath387"><path
         d="m 17.008,41.288 h 561.26 V 817.6 H 17.008 Z"
         id="path385" /></clipPath><clipPath
       clipPathUnits="userSpaceOnUse"
       id="clipPath401"><path
         d="m 17.008,41.288 h 561.26 V 817.6 H 17.008 Z"
         id="path399" /></clipPath><clipPath
       clipPathUnits="userSpaceOnUse"
       id="clipPath415"><path
         d="m 17.008,41.288 h 561.26 V 817.6 H 17.008 Z"
         id="path413" /></clipPath><clipPath
       clipPathUnits="userSpaceOnUse"
       id="clipPath429"><path
         d="m 17.008,41.288 h 561.26 V 817.6 H 17.008 Z"
         id="path427" /></clipPath><clipPath
       clipPathUnits="userSpaceOnUse"
       id="clipPath443"><path
         d="m 17.008,41.288 h 561.26 V 817.6 H 17.008 Z"
         id="path441" /></clipPath><clipPath
       clipPathUnits="userSpaceOnUse"
       id="clipPath457"><path
         d="m 17.008,41.288 h 561.26 V 817.6 H 17.008 Z"
         id="path455" /></clipPath><clipPath
       clipPathUnits="userSpaceOnUse"
       id="clipPath471"><path
         d="m 17.008,41.288 h 561.26 V 817.6 H 17.008 Z"
         id="path469" /></clipPath><clipPath
       clipPathUnits="userSpaceOnUse"
       id="clipPath485"><path
         d="m 17.008,41.288 h 561.26 V 817.6 H 17.008 Z"
         id="path483" /></clipPath><clipPath
       clipPathUnits="userSpaceOnUse"
       id="clipPath501"><path
         d="m 17.008,41.288 h 561.26 V 817.6 H 17.008 Z"
         id="path499" /></clipPath><clipPath
       clipPathUnits="userSpaceOnUse"
       id="clipPath515"><path
         d="m 17.008,41.288 h 561.26 V 817.6 H 17.008 Z"
         id="path513" /></clipPath><clipPath
       clipPathUnits="userSpaceOnUse"
       id="clipPath529"><path
         d="m 17.008,41.288 h 561.26 V 817.6 H 17.008 Z"
         id="path527" /></clipPath></defs><sodipodi:namedview
     id="namedview11"
     pagecolor="#ffffff"
     bordercolor="#666666"
     borderopacity="1.0"
     inkscape:pageshadow="2"
     inkscape:pageopacity="0.0"
     inkscape:pagecheckerboard="0"
     showgrid="false"
     inkscape:zoom="1.504268"
     inkscape:cx="506.22627"
     inkscape:cy="637.18697"
     inkscape:window-width="1440"
     inkscape:window-height="847"
     inkscape:window-x="-8"
     inkscape:window-y="-8"
     inkscape:window-maximized="1"
     inkscape:current-layer="g15" /><g
     id="g15"
     inkscape:groupmode="layer"
     inkscape:label="Rulebook-20"
     transform="matrix(1.3333333,0,0,-1.3333333,0,1122.52)"><path
       d="m 17.008,41.288 h 561.26 V 817.6 H 17.008 Z"
       style="fill:#040606;fill-opacity:0;fill-rule:nonzero;stroke:none"
       id="path61" /><path
       d="M 514.354,67.57 H 43.747 v 705.911 h 470.607 z"
       style="fill:#040606;fill-opacity:0;fill-rule:evenodd;stroke:none"
       id="path63" /><g
       id="g65"
       transform="translate(514.354,773.4801)"><path
         d="M 0,0 V -705.911 H -470.607 V 0 Z"
         style="fill:none;stroke:#8a8d8d;stroke-width:2.83;stroke-linecap:butt;stroke-linejoin:round;stroke-miterlimit:8;stroke-dasharray:none;stroke-opacity:1"
         id="path67" /></g><g
       id="g69"
       transform="translate(92.0511,463.3065)"><path
         d="M 0,0 H 10.696 Z"
         style="fill:#040606;fill-opacity:0;fill-rule:nonzero;stroke:none"
         id="path71" /></g><g
       id="g73"
       transform="translate(102.7463,463.3068)"><path
         d="M 0,0 H -10.696"
         style="fill:none;stroke:#8a8d8d;stroke-width:2.83;stroke-linecap:butt;stroke-linejoin:round;stroke-miterlimit:8;stroke-dasharray:none;stroke-opacity:1"
         id="path75" /></g><g
       id="g77"
       transform="translate(92.0511,377.7417)"><path
         d="M 0,0 H 10.696 Z"
         style="fill:#040606;fill-opacity:0;fill-rule:nonzero;stroke:none"
         id="path79" /></g><g
       id="g81"
       transform="translate(102.7463,377.7419)"><path
         d="M 0,0 H -10.696"
         style="fill:none;stroke:#8a8d8d;stroke-width:2.83;stroke-linecap:butt;stroke-linejoin:round;stroke-miterlimit:8;stroke-dasharray:none;stroke-opacity:1"
         id="path83" /></g><path
       d="m 455.529,420.524 h 58.826 v -42.782 h -58.826 z"
       style="fill:#040606;fill-opacity:0;fill-rule:evenodd;stroke:none"
       id="path85" /><g
       id="g87"
       transform="translate(455.529,420.5243)"><path
         d="M 0,0 H 58.826 V -42.782 H 0 Z"
         style="fill:none;stroke:#8a8d8d;stroke-width:2.83;stroke-linecap:butt;stroke-linejoin:round;stroke-miterlimit:8;stroke-dasharray:none;stroke-opacity:1"
         id="path89" /></g><text
       transform="matrix(1,0,0,-1,464.497,402.2177)"
       style="font-variant:normal;font-weight:normal;font-stretch:normal;font-size:12.2628px;-inkscape-font-specification:ArialMT;writing-mode:lr-tb;fill:#040606;fill-opacity:1;fill-rule:nonzero;stroke:none"
       id="text95"><tspan
         sodipodi:role="line"
         id="tspan93"
         x="0"
         y="0">Strefa</tspan><tspan
         sodipodi:role="line"
         x="0"
         y="15.493446"
         id="tspan16963">  kar</tspan></text><path
       d="m 455.529,463.307 h 58.826 v -42.782 h -58.826 z"
       style="fill:#040606;fill-opacity:0;fill-rule:evenodd;stroke:none"
       id="path97" /><g
       id="g99"
       transform="translate(455.529,463.3068)"><path
         d="M 0,0 H 58.826 V -42.782 H 0 Z"
         style="fill:none;stroke:#8a8d8d;stroke-width:2.83;stroke-linecap:butt;stroke-linejoin:round;stroke-miterlimit:8;stroke-dasharray:none;stroke-opacity:1"
         id="path101" /></g><text
       transform="matrix(1,0,0,-1,464.497,445.0001)"
       style="font-variant:normal;font-weight:normal;font-stretch:normal;font-size:12.2628px;-inkscape-font-specification:ArialMT;writing-mode:lr-tb;fill:#040606;fill-opacity:1;fill-rule:nonzero;stroke:none"
       id="text107"><tspan
         sodipodi:role="line"
         x="0"
         y="0"
         id="tspan15665">Strefa</tspan><tspan
         sodipodi:role="line"
         x="0"
         y="15.493446"
         id="tspan15669">  kar</tspan></text><path
       d="m 484.941,99.657 h -29.413 v 203.217 h 29.413 z"
       style="fill:#040606;fill-opacity:0;fill-rule:evenodd;stroke:none"
       id="path109" /><g
       id="g111"
       transform="translate(484.941,302.8734)"><path
         d="M 0,0 V -203.217 H -29.413 V 0 Z"
         style="fill:none;stroke:#8a8d8d;stroke-width:2.83;stroke-linecap:butt;stroke-linejoin:round;stroke-miterlimit:8;stroke-dasharray:none;stroke-opacity:1"
         id="path113" /></g><text
       transform="matrix(0,-1,-1,0,0,0)"
       style="font-variant:normal;font-weight:normal;font-stretch:normal;font-size:13.2061px;-inkscape-font-specification:ArialMT;writing-mode:lr-tb;fill:#040606;fill-opacity:1;fill-rule:nonzero;stroke:none"
       id="text117"
       x="-246.6597"
       y="-465.3389"><tspan
         sodipodi:role="line"
         id="tspan115"
         x="-246.6597"
         y="-465.3389">Strefa zmian</tspan></text><path
       d="m 484.941,538.177 h -29.413 v 203.217 h 29.413 z"
       style="fill:#040606;fill-opacity:0;fill-rule:evenodd;stroke:none"
       id="path119" /><g
       id="g121"
       transform="translate(484.941,741.3936)"><path
         d="M 0,0 V -203.217 H -29.413 V 0 Z"
         style="fill:none;stroke:#8a8d8d;stroke-width:2.83;stroke-linecap:butt;stroke-linejoin:round;stroke-miterlimit:8;stroke-dasharray:none;stroke-opacity:1"
         id="path123" /></g><text
       transform="matrix(0,-1,-1,0,0,0)"
       style="font-variant:normal;font-weight:normal;font-stretch:normal;font-size:13.2061px;-inkscape-font-specification:ArialMT;writing-mode:lr-tb;fill:#040606;fill-opacity:1;fill-rule:nonzero;stroke:none"
       id="text127"
       x="-685.17987"
       y="-465.3389"><tspan
         sodipodi:role="line"
         id="tspan125"
         x="-685.17987"
         y="-465.3389">Strefa zmian</tspan></text><path
       d="m 514.354,538.177 h -29.413 v 203.217 h 29.413 z"
       style="fill:#040606;fill-opacity:0;fill-rule:evenodd;stroke:none"
       id="path129" /><g
       id="g131"
       transform="translate(514.354,741.3936)"><path
         d="M 0,0 V -203.217 H -29.413 V 0 Z"
         style="fill:none;stroke:#8a8d8d;stroke-width:2.83;stroke-linecap:butt;stroke-linejoin:round;stroke-miterlimit:8;stroke-dasharray:none;stroke-opacity:1"
         id="path133" /></g><text
       transform="matrix(0,-1,-1,0,0,0)"
       style="font-variant:normal;font-weight:normal;font-stretch:normal;font-size:13.2061px;-inkscape-font-specification:ArialMT;writing-mode:lr-tb;fill:#040606;fill-opacity:1;fill-rule:nonzero;stroke:none"
       id="text137"
       x="-694.46808"
       y="-494.7518"><tspan
         sodipodi:role="line"
         id="tspan135"
         x="-694.46808"
         y="-494.7518">Ławka drużyny</tspan></text><path
       d="m 514.354,99.657 h -29.413 v 203.217 h 29.413 z"
       style="fill:#040606;fill-opacity:0;fill-rule:evenodd;stroke:none"
       id="path139" /><g
       id="g141"
       transform="translate(514.354,302.8734)"><path
         d="M 0,0 V -203.217 H -29.413 V 0 Z"
         style="fill:none;stroke:#8a8d8d;stroke-width:2.83;stroke-linecap:butt;stroke-linejoin:round;stroke-miterlimit:8;stroke-dasharray:none;stroke-opacity:1"
         id="path143" /></g><text
       transform="matrix(0,-1,-1,0,0,0)"
       style="font-variant:normal;font-weight:normal;font-stretch:normal;font-size:13.2061px;-inkscape-font-specification:ArialMT;writing-mode:lr-tb;fill:#040606;fill-opacity:1;fill-rule:nonzero;stroke:none"
       id="text147"
       x="-255.9478"
       y="-494.7518"><tspan
         sodipodi:role="line"
         id="tspan145"
         x="-255.9478"
         y="-494.7518">Ławka drużyny</tspan></text><g
       id="g149"
       transform="translate(313.5447,597.0015)"><path
         d="M 0,0 141.984,0.045 Z"
         style="fill:#040606;fill-opacity:0;fill-rule:nonzero;stroke:none"
         id="path151" /></g><g
       id="g153"
       transform="translate(455.529,597.0465)"><path
         d="M 0,0 -141.984,-0.045"
         style="fill:none;stroke:#8a8d8d;stroke-width:2.83;stroke-linecap:butt;stroke-linejoin:round;stroke-miterlimit:8;stroke-dasharray:none;stroke-opacity:1"
         id="path155" /></g><g
       id="g157"
       transform="translate(313.5447,244.0467)"><path
         d="M 0,0 H 141.984 Z"
         style="fill:#040606;fill-opacity:0;fill-rule:nonzero;stroke:none"
         id="path159" /></g><g
       id="g161"
       transform="translate(455.529,244.0467)"><path
         d="M 0,0 H -141.984"
         style="fill:none;stroke:#8a8d8d;stroke-width:2.83;stroke-linecap:butt;stroke-linejoin:round;stroke-miterlimit:8;stroke-dasharray:none;stroke-opacity:1"
         id="path163" /></g><g
       id="g165"
       transform="translate(102.5739,244.0017)"><path
         d="M 0,0 141.984,0.045 Z"
         style="fill:#040606;fill-opacity:0;fill-rule:nonzero;stroke:none"
         id="path167" /></g><g
       id="g169"
       transform="translate(244.5579,244.0467)"><path
         d="M 0,0 -141.984,-0.045"
         style="fill:none;stroke:#8a8d8d;stroke-width:2.83;stroke-linecap:butt;stroke-linejoin:round;stroke-miterlimit:8;stroke-dasharray:none;stroke-opacity:1"
         id="path171" /></g><g
       id="g173"
       transform="translate(102.5739,597.0015)"><path
         d="M 0,0 141.984,0.045 Z"
         style="fill:#040606;fill-opacity:0;fill-rule:nonzero;stroke:none"
         id="path175" /></g><g
       id="g177"
       transform="translate(244.5579,597.0465)"><path
         d="M 0,0 -141.984,-0.045"
         style="fill:none;stroke:#8a8d8d;stroke-width:2.83;stroke-linecap:butt;stroke-linejoin:round;stroke-miterlimit:8;stroke-dasharray:none;stroke-opacity:1"
         id="path179" /></g><path
       d="M 455.529,99.657 H 102.574 v 641.737 h 352.955 z"
       style="fill:#040606;fill-opacity:0;fill-rule:evenodd;stroke:none"
       id="path181" /><g
       id="g183"
       transform="translate(455.529,741.3936)"><path
         d="M 0,0 V -641.737 H -352.955 V 0 Z"
         style="fill:none;stroke:#040606;stroke-width:2.83;stroke-linecap:butt;stroke-linejoin:round;stroke-miterlimit:8;stroke-dasharray:none;stroke-opacity:1"
         id="path185" /></g><g
       id="g187"
       transform="translate(288.4104,597.0015)"><path
         d="M 0,0 H 6.417 Z"
         style="fill:#040606;fill-opacity:0;fill-rule:nonzero;stroke:none"
         id="path189" /></g><g
       id="g191"
       transform="translate(294.8273,597.002)"><path
         d="M 0,0 H -6.417"
         style="fill:none;stroke:#8a8d8d;stroke-width:2.83;stroke-linecap:butt;stroke-linejoin:round;stroke-miterlimit:8;stroke-dasharray:none;stroke-opacity:1"
         id="path193" /></g><g
       id="g195"
       transform="translate(263.2752,597.0015)"><path
         d="M 0,0 H 6.417 Z"
         style="fill:#040606;fill-opacity:0;fill-rule:nonzero;stroke:none"
         id="path197" /></g><g
       id="g199"
       transform="translate(269.6923,597.002)"><path
         d="M 0,0 H -6.417"
         style="fill:none;stroke:#8a8d8d;stroke-width:2.83;stroke-linecap:butt;stroke-linejoin:round;stroke-miterlimit:8;stroke-dasharray:none;stroke-opacity:1"
         id="path201" /></g><g
       id="g203"
       transform="translate(288.4104,244.0467)"><path
         d="M 0,0 H 6.417 Z"
         style="fill:#040606;fill-opacity:0;fill-rule:nonzero;stroke:none"
         id="path205" /></g><g
       id="g207"
       transform="translate(294.8273,244.0467)"><path
         d="M 0,0 H -6.417"
         style="fill:none;stroke:#8a8d8d;stroke-width:2.83;stroke-linecap:butt;stroke-linejoin:round;stroke-miterlimit:8;stroke-dasharray:none;stroke-opacity:1"
         id="path209" /></g><g
       id="g211"
       transform="translate(263.2752,244.0467)"><path
         d="M 0,0 H 6.417 Z"
         style="fill:#040606;fill-opacity:0;fill-rule:nonzero;stroke:none"
         id="path213" /></g><g
       id="g215"
       transform="translate(269.6923,244.0467)"><path
         d="M 0,0 H -6.417"
         style="fill:none;stroke:#8a8d8d;stroke-width:2.83;stroke-linecap:butt;stroke-linejoin:round;stroke-miterlimit:8;stroke-dasharray:none;stroke-opacity:1"
         id="path217" /></g><g
       id="g219"><g
         id="g221"
         clip-path="url(#clipPath225)"><g
           id="g227"
           transform="translate(279.051,606.3606)"><path
             d="m 0,0 v 0 c 5.169,0 9.359,-4.19 9.359,-9.359 0,-2.482 -0.986,-4.862 -2.741,-6.617 -1.755,-1.755 -4.136,-2.741 -6.618,-2.741 -5.169,0 -9.359,4.19 -9.359,9.358 C -9.359,-4.19 -5.169,0 0,0"
             style="fill:#040606;fill-opacity:0;fill-rule:evenodd;stroke:none"
             id="path229" /></g><g
           id="g231"
           transform="translate(279.051,606.3606)"><path
             d="m 0,0 v 0 c 5.169,0 9.359,-4.19 9.359,-9.359 0,-2.482 -0.986,-4.862 -2.741,-6.617 -1.755,-1.755 -4.136,-2.741 -6.618,-2.741 -5.169,0 -9.359,4.19 -9.359,9.358 C -9.359,-4.19 -5.169,0 0,0 Z"
             style="fill:none;stroke:#8a8d8d;stroke-width:2.83;stroke-linecap:butt;stroke-linejoin:round;stroke-miterlimit:8;stroke-dasharray:none;stroke-opacity:1"
             id="path233" /></g><g
           id="g235"
           transform="translate(304.186,606.3606)"><path
             d="m 0,0 v 0 c 5.169,0 9.359,-4.19 9.359,-9.359 0,-2.482 -0.986,-4.862 -2.741,-6.617 -1.756,-1.755 -4.136,-2.741 -6.618,-2.741 -5.169,0 -9.359,4.19 -9.359,9.358 C -9.359,-4.19 -5.169,0 0,0"
             style="fill:#040606;fill-opacity:0;fill-rule:evenodd;stroke:none"
             id="path237" /></g><g
           id="g239"
           transform="translate(304.186,606.3606)"><path
             d="m 0,0 v 0 c 5.169,0 9.359,-4.19 9.359,-9.359 0,-2.482 -0.986,-4.862 -2.741,-6.617 -1.756,-1.755 -4.136,-2.741 -6.618,-2.741 -5.169,0 -9.359,4.19 -9.359,9.358 C -9.359,-4.19 -5.169,0 0,0 Z"
             style="fill:none;stroke:#8a8d8d;stroke-width:2.83;stroke-linecap:butt;stroke-linejoin:round;stroke-miterlimit:8;stroke-dasharray:none;stroke-opacity:1"
             id="path241" /></g><g
           id="g243"
           transform="translate(253.9166,606.3606)"><path
             d="m 0,0 v 0 c 5.169,0 9.359,-4.19 9.359,-9.359 0,-2.482 -0.986,-4.862 -2.741,-6.617 -1.756,-1.755 -4.136,-2.741 -6.618,-2.741 -5.169,0 -9.359,4.19 -9.359,9.358 C -9.359,-4.19 -5.169,0 0,0"
             style="fill:#040606;fill-opacity:0;fill-rule:evenodd;stroke:none"
             id="path245" /></g><g
           id="g247"
           transform="translate(253.9166,606.3606)"><path
             d="m 0,0 v 0 c 5.169,0 9.359,-4.19 9.359,-9.359 0,-2.482 -0.986,-4.862 -2.741,-6.617 -1.756,-1.755 -4.136,-2.741 -6.618,-2.741 -5.169,0 -9.359,4.19 -9.359,9.358 C -9.359,-4.19 -5.169,0 0,0 Z"
             style="fill:none;stroke:#8a8d8d;stroke-width:2.83;stroke-linecap:butt;stroke-linejoin:round;stroke-miterlimit:8;stroke-dasharray:none;stroke-opacity:1"
             id="path249" /></g><g
           id="g251"
           transform="translate(279.051,253.4053)"><path
             d="m 0,0 v 0 c 5.169,0 9.359,-4.19 9.359,-9.359 0,-2.482 -0.986,-4.862 -2.741,-6.617 -1.755,-1.755 -4.136,-2.741 -6.618,-2.741 -5.169,0 -9.359,4.19 -9.359,9.358 C -9.359,-4.19 -5.169,0 0,0"
             style="fill:#040606;fill-opacity:0;fill-rule:evenodd;stroke:none"
             id="path253" /></g><g
           id="g255"
           transform="translate(279.051,253.4053)"><path
             d="m 0,0 v 0 c 5.169,0 9.359,-4.19 9.359,-9.359 0,-2.482 -0.986,-4.862 -2.741,-6.617 -1.755,-1.755 -4.136,-2.741 -6.618,-2.741 -5.169,0 -9.359,4.19 -9.359,9.358 C -9.359,-4.19 -5.169,0 0,0 Z"
             style="fill:none;stroke:#8a8d8d;stroke-width:2.83;stroke-linecap:butt;stroke-linejoin:round;stroke-miterlimit:8;stroke-dasharray:none;stroke-opacity:1"
             id="path257" /></g><g
           id="g259"
           transform="translate(304.186,253.4053)"><path
             d="m 0,0 v 0 c 5.169,0 9.359,-4.19 9.359,-9.359 0,-2.482 -0.986,-4.862 -2.741,-6.617 -1.756,-1.755 -4.136,-2.741 -6.618,-2.741 -5.169,0 -9.359,4.19 -9.359,9.358 C -9.359,-4.19 -5.169,0 0,0"
             style="fill:#040606;fill-opacity:0;fill-rule:evenodd;stroke:none"
             id="path261" /></g><g
           id="g263"
           transform="translate(304.186,253.4053)"><path
             d="m 0,0 v 0 c 5.169,0 9.359,-4.19 9.359,-9.359 0,-2.482 -0.986,-4.862 -2.741,-6.617 -1.756,-1.755 -4.136,-2.741 -6.618,-2.741 -5.169,0 -9.359,4.19 -9.359,9.358 C -9.359,-4.19 -5.169,0 0,0 Z"
             style="fill:none;stroke:#8a8d8d;stroke-width:2.83;stroke-linecap:butt;stroke-linejoin:round;stroke-miterlimit:8;stroke-dasharray:none;stroke-opacity:1"
             id="path265" /></g><path
           d="M 455.529,302.873 H 102.574 v 235.304 h 352.955 z"
           style="fill:#040606;fill-opacity:0;fill-rule:evenodd;stroke:none"
           id="path267" /><g
           id="g269"
           transform="translate(455.5286,538.1761)"><path
             d="M 0,0 V -235.304 H -352.955 V 0 Z"
             style="fill:none;stroke:#040606;stroke-width:2.83;stroke-linecap:butt;stroke-linejoin:round;stroke-miterlimit:8;stroke-dasharray:none;stroke-opacity:1"
             id="path271" /></g><g
           id="g273"
           transform="translate(253.9166,253.4053)"><path
             d="m 0,0 v 0 c 5.169,0 9.359,-4.19 9.359,-9.359 0,-2.482 -0.986,-4.862 -2.741,-6.617 -1.755,-1.755 -4.136,-2.741 -6.618,-2.741 -5.169,0 -9.359,4.19 -9.359,9.358 C -9.359,-4.19 -5.169,0 0,0"
             style="fill:#040606;fill-opacity:0;fill-rule:evenodd;stroke:none"
             id="path275" /></g><g
           id="g277"
           transform="translate(253.9166,253.4053)"><path
             d="m 0,0 v 0 c 5.169,0 9.359,-4.19 9.359,-9.359 0,-2.482 -0.986,-4.862 -2.741,-6.617 -1.755,-1.755 -4.136,-2.741 -6.618,-2.741 -5.169,0 -9.359,4.19 -9.359,9.358 C -9.359,-4.19 -5.169,0 0,0 Z"
             style="fill:none;stroke:#8a8d8d;stroke-width:2.83;stroke-linecap:butt;stroke-linejoin:round;stroke-miterlimit:8;stroke-dasharray:none;stroke-opacity:1"
             id="path279" /></g><g
           id="g281"
           transform="translate(455.529,420.5243)"><path
             d="M 0,0 H -352.955"
             style="fill:#040606;fill-opacity:0;fill-rule:evenodd;stroke:none"
             id="path283" /></g><g
           id="g285"
           transform="translate(455.529,420.5243)"><path
             d="M 0,0 H -352.955"
             style="fill:none;stroke:#040606;stroke-width:2.83;stroke-linecap:butt;stroke-linejoin:round;stroke-miterlimit:8;stroke-dasharray:none;stroke-opacity:1"
             id="path287" /></g><g
           id="g289"
           transform="translate(279.0513,543.5239)"><path
             d="m 0,0 v 0 c 2.953,0 5.348,-2.394 5.348,-5.348 0,-1.418 -0.564,-2.778 -1.567,-3.781 -1.002,-1.003 -2.363,-1.567 -3.781,-1.567 -2.954,0 -5.348,2.395 -5.348,5.348 C -5.348,-2.394 -2.954,0 0,0"
             style="fill:#8a8d8d;fill-opacity:1;fill-rule:evenodd;stroke:none"
             id="path291" /></g><g
           id="g293"
           transform="translate(279.0513,543.5239)"><path
             d="m 0,0 v 0 c 2.953,0 5.348,-2.394 5.348,-5.348 0,-1.418 -0.564,-2.778 -1.567,-3.781 -1.002,-1.003 -2.363,-1.567 -3.781,-1.567 -2.954,0 -5.348,2.395 -5.348,5.348 C -5.348,-2.394 -2.954,0 0,0 Z"
             style="fill:none;stroke:#8a8d8d;stroke-width:1.415;stroke-linecap:butt;stroke-linejoin:round;stroke-miterlimit:8;stroke-dasharray:none;stroke-opacity:1"
             id="path295" /></g><g
           id="g297"
           transform="translate(279.0513,425.8721)"><path
             d="m 0,0 v 0 c 2.953,0 5.348,-2.394 5.348,-5.348 0,-1.418 -0.564,-2.778 -1.567,-3.781 -1.002,-1.003 -2.363,-1.567 -3.781,-1.567 -2.954,0 -5.348,2.395 -5.348,5.348 C -5.348,-2.394 -2.954,0 0,0"
             style="fill:#8a8d8d;fill-opacity:1;fill-rule:evenodd;stroke:none"
             id="path299" /></g><g
           id="g301"
           transform="translate(279.0513,425.8721)"><path
             d="m 0,0 v 0 c 2.953,0 5.348,-2.394 5.348,-5.348 0,-1.418 -0.564,-2.778 -1.567,-3.781 -1.002,-1.003 -2.363,-1.567 -3.781,-1.567 -2.954,0 -5.348,2.395 -5.348,5.348 C -5.348,-2.394 -2.954,0 0,0 Z"
             style="fill:none;stroke:#8a8d8d;stroke-width:1.415;stroke-linecap:butt;stroke-linejoin:round;stroke-miterlimit:8;stroke-dasharray:none;stroke-opacity:1"
             id="path303" /></g><g
           id="g305"
           transform="translate(279.0513,308.2204)"><path
             d="m 0,0 v 0 c 2.953,0 5.348,-2.394 5.348,-5.348 0,-1.418 -0.564,-2.778 -1.567,-3.781 -1.002,-1.003 -2.363,-1.567 -3.781,-1.567 -2.954,0 -5.348,2.395 -5.348,5.348 C -5.348,-2.394 -2.954,0 0,0"
             style="fill:#8a8d8d;fill-opacity:1;fill-rule:evenodd;stroke:none"
             id="path307" /></g><g
           id="g309"
           transform="translate(279.0513,308.2204)"><path
             d="m 0,0 v 0 c 2.953,0 5.348,-2.394 5.348,-5.348 0,-1.418 -0.564,-2.778 -1.567,-3.781 -1.002,-1.003 -2.363,-1.567 -3.781,-1.567 -2.954,0 -5.348,2.395 -5.348,5.348 C -5.348,-2.394 -2.954,0 0,0 Z"
             style="fill:none;stroke:#8a8d8d;stroke-width:1.415;stroke-linecap:butt;stroke-linejoin:round;stroke-miterlimit:8;stroke-dasharray:none;stroke-opacity:1"
             id="path311" /></g><g
           id="g313"
           transform="translate(190.8125,441.9156)"><path
             d="M 0,0 V -42.782"
             style="fill:#040606;fill-opacity:0;fill-rule:evenodd;stroke:none"
             id="path315" /></g><g
           id="g317"
           transform="translate(190.8125,441.9156)"><path
             d="M 0,0 V -42.782"
             style="fill:none;stroke:#040606;stroke-width:2.83;stroke-linecap:butt;stroke-linejoin:round;stroke-miterlimit:8;stroke-dasharray:none;stroke-opacity:1"
             id="path319" /></g><g
           id="g321"
           transform="translate(190.8125,425.8721)"><path
             d="m 0,0 v 0 c 2.954,0 5.348,-2.394 5.348,-5.348 0,-1.418 -0.564,-2.778 -1.567,-3.781 -1.002,-1.003 -2.363,-1.567 -3.781,-1.567 -2.954,0 -5.348,2.395 -5.348,5.348 C -5.348,-2.394 -2.954,0 0,0"
             style="fill:#8a8d8d;fill-opacity:1;fill-rule:evenodd;stroke:none"
             id="path323" /></g><g
           id="g325"
           transform="translate(190.8125,425.8721)"><path
             d="m 0,0 v 0 c 2.954,0 5.348,-2.394 5.348,-5.348 0,-1.418 -0.564,-2.778 -1.567,-3.781 -1.002,-1.003 -2.363,-1.567 -3.781,-1.567 -2.954,0 -5.348,2.395 -5.348,5.348 C -5.348,-2.394 -2.954,0 0,0 Z"
             style="fill:none;stroke:#8a8d8d;stroke-width:1.415;stroke-linecap:butt;stroke-linejoin:round;stroke-miterlimit:8;stroke-dasharray:none;stroke-opacity:1"
             id="path327" /></g><path
           d="m 551.79,380.416 h -29.413 v 80.217 h 29.413 z"
           style="fill:#040606;fill-opacity:0;fill-rule:evenodd;stroke:none"
           id="path329" /><g
           id="g331"
           transform="translate(551.7896,460.6329)"><path
             d="M 0,0 V -80.217 H -29.413 V 0 Z"
             style="fill:none;stroke:#8a8d8d;stroke-width:2.83;stroke-linecap:butt;stroke-linejoin:round;stroke-miterlimit:8;stroke-dasharray:none;stroke-opacity:1"
             id="path333" /></g></g></g><text
       transform="matrix(0,-1,-1,0,532.1873,457.9422)"
       style="font-variant:normal;font-weight:normal;font-stretch:normal;font-size:13.2061px;-inkscape-font-specification:ArialMT;writing-mode:lr-tb;fill:#040606;fill-opacity:1;fill-rule:nonzero;stroke:none"
       id="text337"><tspan
         x="0 8.7952623 15.398313 22.740904 27.138536 34.481129 41.084179 48.426769 55.76936 63.111954 70.454544"
         y="0"
         sodipodi:role="line"
         id="tspan335">Scorekeeper</tspan></text><g
       id="g339"><g
         id="g341"
         clip-path="url(#clipPath345)"><path
           d="M 102.574,597.002 H 73.161 v 144.391 h 29.413 z"
           style="fill:#040606;fill-opacity:0;fill-rule:evenodd;stroke:none"
           id="path347" /></g></g><text
       transform="matrix(0,-1,-1,0,89.8958,717.2555)"
       style="font-variant:normal;font-weight:normal;font-stretch:normal;font-size:13.2061px;-inkscape-font-specification:ArialMT;writing-mode:lr-tb;fill:#040606;fill-opacity:1;fill-rule:nonzero;stroke:none"
       id="text351"><tspan
         sodipodi:role="line"
         id="tspan349"
         x="0"
         y="0">Linia boczna startowa</tspan></text><g
       id="g353"><g
         id="g355"
         clip-path="url(#clipPath359)"><path
           d="m 455.529,597.002 h -29.413 v 144.391 h 29.413 z"
           style="fill:#040606;fill-opacity:0;fill-rule:evenodd;stroke:none"
           id="path361" /></g></g><text
       transform="matrix(0,-1,-1,0,442.8511,736.8217)"
       style="font-variant:normal;font-weight:normal;font-stretch:normal;font-size:13.2061px;-inkscape-font-specification:ArialMT;writing-mode:lr-tb;fill:#040606;fill-opacity:1;fill-rule:nonzero;stroke:none"
       id="text365"><tspan
         sodipodi:role="line"
         id="tspan363"
         x="0"
         y="0">Linia boczna scorekeepera</tspan></text><g
       id="g367"><g
         id="g369"
         clip-path="url(#clipPath373)"><path
           d="M 311.139,538.176 H 455.53 V 508.763 H 311.139 Z"
           style="fill:#040606;fill-opacity:0;fill-rule:evenodd;stroke:none"
           id="path375" /></g></g><text
       transform="scale(1,-1)"
       style="font-variant:normal;font-weight:normal;font-stretch:normal;font-size:13.2061px;-inkscape-font-specification:ArialMT;writing-mode:lr-tb;fill:#040606;fill-opacity:1;fill-rule:nonzero;stroke:none"
       id="text379"
       x="323.36761"
       y="-525.49847"><tspan
         sodipodi:role="line"
         id="tspan377"
         x="323.36761"
         y="-525.49847">Linia pola obrońcy</tspan></text><g
       id="g381"><g
         id="g383"
         clip-path="url(#clipPath387)"><path
           d="M 311.139,302.873 H 455.53 V 273.46 H 311.139 Z"
           style="fill:#040606;fill-opacity:0;fill-rule:evenodd;stroke:none"
           id="path389" /></g></g><text
       transform="scale(1,-1)"
       style="font-variant:normal;font-weight:normal;font-stretch:normal;font-size:13.2061px;-inkscape-font-specification:ArialMT;writing-mode:lr-tb;fill:#040606;fill-opacity:1;fill-rule:nonzero;stroke:none"
       id="text393"
       x="323.36761"
       y="-290.19501"><tspan
         sodipodi:role="line"
         id="tspan391"
         x="323.36761"
         y="-290.19501">Linia pola obrońcy</tspan></text><g
       id="g395"><g
         id="g397"
         clip-path="url(#clipPath401)"><path
           d="M 311.139,420.525 H 455.53 V 391.112 H 311.139 Z"
           style="fill:#040606;fill-opacity:0;fill-rule:evenodd;stroke:none"
           id="path403" /></g></g><text
       transform="matrix(1,0,0,-1,346.2834,407.8468)"
       style="font-variant:normal;font-weight:normal;font-stretch:normal;font-size:13.2061px;-inkscape-font-specification:ArialMT;writing-mode:lr-tb;fill:#040606;fill-opacity:1;fill-rule:nonzero;stroke:none"
       id="text407"><tspan
         sodipodi:role="line"
         id="tspan405"
         x="0"
         y="0">Linia środkowa</tspan></text><g
       id="g409"><g
         id="g411"
         clip-path="url(#clipPath415)"><path
           d="M 101.371,597.047 H 245.762 V 567.634 H 101.371 Z"
           style="fill:#040606;fill-opacity:0;fill-rule:evenodd;stroke:none"
           id="path417" /></g></g><text
       transform="scale(1,-1)"
       style="font-variant:normal;font-weight:normal;font-stretch:normal;font-size:13.2061px;-inkscape-font-specification:ArialMT;writing-mode:lr-tb;fill:#040606;fill-opacity:1;fill-rule:nonzero;stroke:none"
       id="text421"
       x="125.8158"
       y="-584.36902"><tspan
         sodipodi:role="line"
         id="tspan419"
         x="125.8158"
         y="-584.36902">Linia bramkowa</tspan></text><g
       id="g423"><g
         id="g425"
         clip-path="url(#clipPath429)"><path
           d="M 102.574,244.047 H 246.965 V 214.634 H 102.574 Z"
           style="fill:#040606;fill-opacity:0;fill-rule:evenodd;stroke:none"
           id="path431" /></g></g><text
       transform="scale(1,-1)"
       style="font-variant:normal;font-weight:normal;font-stretch:normal;font-size:13.2061px;-inkscape-font-specification:ArialMT;writing-mode:lr-tb;fill:#040606;fill-opacity:1;fill-rule:nonzero;stroke:none"
       id="text435"
       x="127.0191"
       y="-231.36909"><tspan
         sodipodi:role="line"
         id="tspan433"
         x="127.0191"
         y="-231.36909">Linia bramkowa</tspan></text><g
       id="g437"><g
         id="g439"
         clip-path="url(#clipPath443)"><path
           d="M 102.574,741.393 H 246.965 V 711.98 H 102.574 Z"
           style="fill:#040606;fill-opacity:0;fill-rule:evenodd;stroke:none"
           id="path445" /></g></g><text
       transform="matrix(1,0,0,-1,152.7543,728.7153)"
       style="font-variant:normal;font-weight:normal;font-stretch:normal;font-size:13.2061px;-inkscape-font-specification:ArialMT;writing-mode:lr-tb;fill:#040606;fill-opacity:1;fill-rule:nonzero;stroke:none"
       id="text449"><tspan
         sodipodi:role="line"
         id="tspan447"
         x="0"
         y="0">Linia końcowa</tspan></text><g
       id="g451"><g
         id="g453"
         clip-path="url(#clipPath457)"><path
           d="M 101.371,99.656 H 245.762 V 70.243 H 101.371 Z"
           style="fill:#040606;fill-opacity:0;fill-rule:evenodd;stroke:none"
           id="path459" /></g></g><text
       transform="matrix(1,0,0,-1,151.5511,86.9783)"
       style="font-variant:normal;font-weight:normal;font-stretch:normal;font-size:13.2061px;-inkscape-font-specification:ArialMT;writing-mode:lr-tb;fill:#040606;fill-opacity:1;fill-rule:nonzero;stroke:none"
       id="text463"><tspan
         sodipodi:role="line"
         id="tspan461"
         x="0"
         y="0">Linia końcowa</tspan></text><g
       id="g465"><g
         id="g467"
         clip-path="url(#clipPath471)"><path
           d="M 194.133,773.48 H 363.97 V 744.067 H 194.133 Z"
           style="fill:#040606;fill-opacity:0;fill-rule:evenodd;stroke:none"
           id="path473" /></g></g><text
       transform="scale(1,-1)"
       style="font-variant:normal;font-weight:normal;font-stretch:normal;font-size:13.2061px;-inkscape-font-specification:ArialMT;writing-mode:lr-tb;fill:#040606;fill-opacity:1;fill-rule:nonzero;stroke:none"
       id="text477"
       x="236.43996"
       y="-759.80463"><tspan
         sodipodi:role="line"
         id="tspan475"
         x="236.43996"
         y="-759.80463">Strefa graczy</tspan></text><g
       id="g479"><g
         id="g481"
         clip-path="url(#clipPath485)"><path
           d="m 141.256,399.133 h 99.113 V 369.72 h -99.113 z"
           style="fill:#040606;fill-opacity:0;fill-rule:evenodd;stroke:none"
           id="path487" /></g></g><text
       transform="scale(1,-1)"
       style="font-variant:normal;font-weight:normal;font-stretch:normal;font-size:13.2061px;-inkscape-font-specification:ArialMT;writing-mode:lr-tb;fill:#040606;fill-opacity:1;fill-rule:nonzero;stroke:none"
       id="text493"
       x="150.16515"
       y="-386.4552"><tspan
         sodipodi:role="line"
         id="tspan491"
         x="150.16515"
         y="-386.4552">Linia startowa</tspan><tspan
         sodipodi:role="line"
         x="150.16515"
         y="-369.76993"
         id="tspan27216">ścigających</tspan></text><g
       id="g495"><g
         id="g497"
         clip-path="url(#clipPath501)"><path
           d="M 206.856,234.688 H 351.247 V 205.275 H 206.856 Z"
           style="fill:#040606;fill-opacity:0;fill-rule:evenodd;stroke:none"
           id="path503" /></g></g><text
       transform="matrix(1,0,0,-1,259.9753,222.0105)"
       style="font-variant:normal;font-weight:normal;font-stretch:normal;font-size:13.2061px;-inkscape-font-specification:ArialMT;writing-mode:lr-tb;fill:#040606;fill-opacity:1;fill-rule:nonzero;stroke:none"
       id="text507"><tspan
         sodipodi:role="line"
         id="tspan505"
         x="0"
         y="0">Pętle</tspan></text><g
       id="g509"><g
         id="g511"
         clip-path="url(#clipPath515)"><path
           d="M 206.856,587.644 H 351.247 V 558.231 H 206.856 Z"
           style="fill:#040606;fill-opacity:0;fill-rule:evenodd;stroke:none"
           id="path517" /></g></g><text
       transform="matrix(1,0,0,-1,259.9753,574.9658)"
       style="font-variant:normal;font-weight:normal;font-stretch:normal;font-size:13.2061px;-inkscape-font-specification:ArialMT;writing-mode:lr-tb;fill:#040606;fill-opacity:1;fill-rule:nonzero;stroke:none"
       id="text521"><tspan
         sodipodi:role="line"
         id="tspan519"
         x="0"
         y="0">Pętle</tspan></text><g
       id="g523"><g
         id="g525"
         clip-path="url(#clipPath529)"><path
           d="m 43.747,444.589 h 58.826 v -48.13 H 43.747 Z"
           style="fill:#040606;fill-opacity:0;fill-rule:evenodd;stroke:none"
           id="path531" /></g></g><text
       transform="scale(1,-1)"
       style="font-variant:normal;font-weight:normal;font-stretch:normal;font-size:13.2061px;-inkscape-font-specification:ArialMT;writing-mode:lr-tb;fill:#040606;fill-opacity:1;fill-rule:nonzero;stroke:none"
       id="text539"
       x="51.413662"
       y="-420.94193"><tspan
         sodipodi:role="line"
         id="tspan537"
         x="51.413662"
         y="-420.94193">Strefa</tspan><tspan
         sodipodi:role="line"
         x="51.413662"
         y="-404.25665"
         id="tspan24182">rozpoczynających</tspan></text></g></svg>
